<svg width="293" height="541" viewBox="0 0 293 541" fill="none" xmlns="http://www.w3.org/2000/svg">
<path d="M174.5 35.5C172.1 30.3 154.167 9.66667 145.5 0C139.167 7.16667 124.4 24.3 116 35.5C135 48.5 133.5 74.5 133.5 88C95.9 88 72.5 69.3333 65.5 60V121C85 110 119.5 107.5 126.5 107.5C132.1 107.5 133.5 110.167 133.5 111.5C133.5 116.5 133.1 129.4 131.5 141C68.7 148.2 26.3333 130.667 13 121L14 175.5H131.5C131.5 180 131.3 191.7 130.5 202.5C27.7 209.3 0.666667 285.333 0 322.5C1 378 51 411.5 75 417.5C40 392.5 33 362.5 33 339C33 263.5 101 240.5 126.5 240.5C125.5 268.5 118.5 284 115.5 297C124 310.5 123.5 339 124 380.5C124.4 413.7 117.167 432 113.5 437L146 541L177.5 438C159 394 168 303.5 176.5 297C169.5 281.5 167.5 263 163.5 240.5C219.5 241 257.5 290 259 339C260.123 375.671 235.371 404.699 220.438 416.752C248.34 408.674 293.931 369.161 292 318C283.6 231.2 200.833 204.833 160.5 202.5V175.5H278V121.5C233.2 146.3 180 144.833 159 141L158 120C158 103 158 106.976 174.5 107.5C199.7 108.3 220 118.167 227 123C226.167 106.833 224.5 71.6 224.5 60C212.5 79.6 175.167 86.8333 158 88C157 50.5 170 41 174.5 35.5Z" fill="black"/>
</svg>
